<svg xmlns="http://www.w3.org/2000/svg" viewBox="0 0 212 340"><style type="text/css">
    .st0{fill:#FFFFFF;stroke:#FFFFFF;stroke-miterlimit:10;}
    .st1{fill:#FCD40B;}
    .st2{fill:#FAA81E;}
    .st3{fill:#8CDB60;}
    .st4{fill:#FFFFFF;}
</style><path class="st0" d="M207.7 179.7c0-0.9 0-2.3 0-3.2 0-2.3-0.5-4.6-0.9-6.5 -0.9-4.6-3.7-8.8-7-12.5l-0.5-0.5 -0.9-0.9c-1.4-1.4-2.8-2.3-4.2-3.2V34.5c0-16.6-13.9-30.5-30.7-30.5s-30.7 13.9-30.7 30.5v83.2c-0.9-0.9-2.8-2.3-4.2-3.2 -4.6-3.2-10.2-4.6-15.3-4.6 -1.9 0-4.2 0-6 0.5 -7.4 1.4-13.9 6-18.1 12.5 -1.9 3.2-3.3 6.5-4.2 10.2 -4.6-4.2-10.7-6.5-17.2-6.5 -1.9 0-3.7 0-5.1 0.5 -5.1 0.9-9.8 3.7-13 7.4 -3.3 3.7-5.6 7.9-6.5 12.5 -0.9-0.5-1.4-0.9-2.3-1.8 -4.6-2.8-8.8-3.7-13-3.7 -1.4 0-3.3 0-4.6 0.5 -3.3 0.9-6.5 2.3-9.3 4.2 -1.9 1.4-3.7 3.2-5.1 5.5 -1.9 2.8-2.8 6-3.3 9.2v0.9C4.5 170.9 4 180.2 4 189.9c0 20.8 2.8 41.2 7.9 60.6 5.1 18.5 12.6 35.1 21.4 49.5 0.5 0.5 0.9 0.9 0.9 1.4 0.5 0.5 0.5 1.4 1.4 1.8v15.7c0 9.2 7.4 17.1 16.7 17.1h106.9c9.3 0 17.2-7.4 17.2-17.1v-15.7c0.5-0.5 0.9-1.4 0.9-1.8 0.5-0.5 0.5-0.9 0.9-1.4 9.3-14.3 16.3-31 21.4-49.5 5.1-19 7.9-39.3 7.9-60.6C208.1 185.7 208.1 182.5 207.7 179.7zM139.8 34.5c0-12.9 10.7-23.6 23.7-23.6 13 0 23.7 10.6 23.7 23.6v116.1c-1.9-0.5-4.2-0.9-6-0.9h-36.7l-3.7-17.6v-0.5c0-0.9-0.5-2.3-0.9-3.2V34.5zM94.7 126.1c3.3-5.1 7.9-8.3 13.9-9.2 1.4-0.5 3.3-0.5 4.6-0.5 4.2 0 8.4 1.4 11.6 3.7 3.7 2.3 6.5 6 8.4 9.7 0.5 1.4 0.9 2.8 1.4 3.7l3.3 16.2h-2.3c0 0-0.5 0-0.9 0 -0.5 0-0.5 0-0.9 0h-0.5c-6.5 0.5-12.6 3.2-16.7 7.9 -5.1 5.1-7.9 11.6-7.9 19 0 13.9 10.7 25.4 24.6 26.8h0.5 0.5c0.5 0 0.9 0 1.4 0h12.1c-0.5 2.8-1.4 5.5-3.3 7.9 -0.5 0.5-0.9 1.4-1.4 1.8 -1.4 1.4-2.8 2.8-4.2 4.2 -2.3 1.8-5.1 2.8-7.9 3.7 -1.4 0.5-3.3 0.5-4.6 0.5 -4.2 0-8.4-1.4-11.6-3.7 -5.1-3.2-8.4-7.9-9.3-13.9l-13-61C90 136.7 91.4 131.2 94.7 126.1zM51.4 141.3c2.8-4.2 7-6.9 11.6-7.9 1.4-0.5 2.8-0.5 3.7-0.5 3.7 0 7 0.9 10.2 2.8 4.2 2.8 7 6.9 7.9 11.6L97 201.4c2.3 10.2-4.2 19.9-14.4 22.2 -1.4 0.5-2.3 0.5-3.7 0.5 -8.8 0-16.3-6-18.1-14.8l-0.9-3.7 -10.7-50.4C47.7 150.6 48.6 145.5 51.4 141.3zM14.2 155.2c2.3-3.7 5.6-6 9.8-6.9 0.9 0 2.3-0.5 3.3-0.5 2.8 0 6 0.9 8.4 2.3 3.3 1.8 5.6 5.1 6.5 8.3l0.5 1.4 9.8 46.2v0.5c1.4 8.3-3.7 16.6-12.1 18 -0.9 0-2.3 0.5-3.3 0.5 -2.8 0-6-0.9-8.4-2.3 -3.7-2.3-6-5.5-7-9.7l-9.8-46.2C11.4 163.1 11.9 158.9 14.2 155.2zM201.1 194c-0.9 36.1-9.8 70.7-25.6 97.1 -1.9 3.2-4.2 6.5-6 9.2V318c0 5.5-4.6 10.2-10.2 10.2H52.4c-5.6 0-10.2-4.6-10.2-10.2v-17.6c-1.9-2.8-4.2-6-6-9.2 -16.3-27.7-25.6-63.3-25.6-100.3l5.1 24c1.4 6 4.6 11.1 9.8 14.3 3.7 2.3 7.9 3.7 12.1 3.7 1.4 0 3.3 0 4.6-0.5 0.5 0 0.5 0 0.9 0 2.3-0.5 4.2-1.4 6-2.3 3.7-2.3 7-5.5 8.8-9.2 3.3 4.2 7.4 7.4 12.1 9.2 2.8 0.9 6 1.4 8.8 1.4 1.9 0 3.7 0 5.6-0.5h0.5c0.9 0 1.9-0.5 2.8-0.9 6.5-2.3 12.1-7.4 14.9-13.9 2.3 3.2 4.6 5.5 7.9 7.9 4.6 3.2 10.2 4.6 15.8 4.6 1.9 0 4.2 0 6-0.5 4.2-0.9 7.9-2.3 11.2-5.1 1.9-1.4 3.3-2.8 4.6-4.2 0.9-0.9 1.9-2.3 2.3-3.2 0.9-1.4 1.9-3.2 2.3-4.6l5.6 17.1c0.5 1.4 1.9 2.3 3.3 2.3 0.5 0 0.5 0 0.9 0 0.9-0.5 1.4-0.9 1.9-1.8 0.5-0.9 0.5-1.8 0.5-2.8l-7-22.7c-0.9-2.3-1.9-4.2-2.8-6h-19.5c-0.5 0-1.4 0-1.9 0 -10.2-0.9-18.1-9.7-18.1-19.9 0-5.1 1.9-10.2 6-13.9 3.3-3.2 7.4-5.1 12.1-5.5 0 0 0.5 0 0.9 0h0.5 0.5 3.7 41.8c2.3 0 4.6 0.5 6.5 0.9 2.3 0.9 4.2 1.8 6 3.2 0.5 0.5 0.9 0.9 1.9 1.4 2.3 2.3 4.2 5.5 5.1 8.8 0 2.8 0.5 5.5 0.5 8.3 0 3.2 0 6.9 0 10.2 0 1.4 0 2.3 0 3.7V194z"/><path class="st1" d="M173.2 75.2v17.1H156V75.2C173.2 75.2 156.5 75.2 173.2 75.2z"/><path class="st2" d="M173.2 40.5v17.1H156V40.5C173.2 40.5 156.5 40.5 173.2 40.5z"/><path class="st3" d="M173.2 110.4v17.1H156v-17.1C173.2 110.4 156.5 110.4 173.2 110.4z"/><path class="st4" d="M99.3 254.6h-7.4l-2.3 12h-7l2.3-12h-7l-2.3 12h-8.8v6.9h7.4l-1.9 9.2h-5.6v6.5H71l-2.3 12.5h7l2.3-12.5h7l-2.3 12.5h7l2.3-12.5h8.8v-6.5h-7.4l1.9-9.2h5.6v-6.9h-4.2L99.3 254.6zM86.8 282.8h-7l1.9-9.2h7L86.8 282.8z"/><path class="st4" d="M109.1 260.6l-2.8 12.5c2.8-0.5 6.5-1.8 10.2-3.2 3.7-1.4 7-3.2 10.2-5.1l-10.2 49h13.9l14.9-71.2H137C130.5 249.1 121.2 255.5 109.1 260.6z"/></svg>