<svg width="196" height="276" fill="none" xmlns="http://www.w3.org/2000/svg"><path d="M4 76.575l5.298-14.434 14.382 5.181-5.298 14.435L4 76.575z" fill="#8CDB60"/><path d="M17.246 45.48l9.462-12.214 12.489 9.253-9.462 12.214c-12.489-9.253-.378 0-12.489-9.253z" fill="#FCD40B"/><path d="M44.117 16.615L58.12 9.953l6.813 13.695L50.93 30.31c-6.813-13.695 0 .37-6.813-13.695z" fill="#FAA81E"/><path d="M144.034 203.158c-9.462 16.655-29.9 52.557-35.955 63.66 0 .37-.378.37-.378.74-.379.37-.757.74-.757 1.11-1.136 1.111-2.27 1.852-3.028 2.222-1.514.74-2.649 1.11-4.541 1.11-.757 0-2.271 0-3.785-.74-1.514-.74-3.028-1.48-3.784-2.591-1.136-1.11-3.407-5.922-6.434-11.104-25.736-44.414-54.878-95.12-69.638-121.029-3.028-6.292-4.92-11.103-6.055-14.434-4.163-11.844-4.163-24.058-4.163-28.5 2.649.74 3.406.74 7.19 1.851 0 5.922 1.136 13.695 3.407 21.097.757 3.701 3.027 8.883 5.677 14.435 7.947 14.434 19.301 34.42 24.6 43.303 18.166 32.2 26.114 46.266 38.603 68.102 2.271 3.702 4.92 8.513 7.191 12.584 1.892 3.332 3.406 6.292 4.92 8.513 0 .37.378.37.378.74.379.37.757.74 1.136.74h1.135c.379 0 .379-.37.757-.74.757-.74 1.514-2.22 2.27-3.33 15.14-26.649 47.687-84.388 72.288-127.692 15.895-28.129 15.895-75.874-23.465-105.854-9.84-7.772-37.847-24.428-76.45-14.064-1.514-2.22-1.892-2.961-3.028-5.552 4.92-1.48 15.896-3.701 24.6-3.701 40.496-1.11 83.641 25.168 93.481 74.024 4.163 18.876.757 38.862-6.812 55.147-10.219 18.877-26.114 46.635-39.36 69.953z" fill="#fff" stroke="#fff" stroke-width="4"/><path d="M98.994 132.467c-21.194 0-38.224-16.655-38.224-37.382 0-20.727 17.03-37.382 38.224-37.382 21.194 0 38.225 16.655 38.225 37.382 0 20.727-17.03 37.382-38.225 37.382zm0-68.102c-17.409 0-31.412 13.695-31.412 30.72 0 17.026 14.003 30.72 31.412 30.72 17.41 0 31.413-13.694 31.413-30.72 0-17.025-14.382-30.72-31.413-30.72z" fill="#fff" stroke="#fff" stroke-width="4"/></svg>