<svg width="296" height="296" fill="none" xmlns="http://www.w3.org/2000/svg"><path d="M127.091 292l-9.2-6.8.4-4 16.4-106h-56L163.891 4l9.2 6.8-.4 4-16.4 106h56l-85.2 171.2zm-35.2-127.6c-.4 1.2-1.2 2.8-1.6 4 28.8-.4 34.8 0 53.2-.4-2.8 18.8-2.4 16-4 24.4-6 37.2-12 78.4-13.6 86.4 2-3.2 3.6-7.2 12-24l61.2-124.4c.8-1.2 0 0 1.2-2-14.4 0-38.4.4-52.8.4 6-36.4 16-95.6 18.4-111.6-4 6.4-1.2 1.6-8.8 16.8l-65.2 130.4zM155.89 4.403c-23.6-1.6-48 2.4-71.2 12.8-13.6 6.4-28 16-34.4 22.4 2.4 2 4 3.2 6 4.4 14.4-12.4 25.2-18.4 40-24 17.2-7.2 33.6-8.8 56.4-9.6 2.4-4 0 .4 3.2-6z" fill="#fff" stroke="#fff" stroke-width="4"/><path d="M277.09 87.6c-19.2-41.6-55.2-69.2-96.4-79.6-.4 3.2-.8 3.6-1.2 7.6 6 1.6 12 4 18.8 6.4 33.6 13.6 56.8 40.4 72.4 68.4 14 36 16.4 68 3.6 105.6-20.8 48.4-45.2 65.2-79.2 80-13.2 5.2-32 9.6-53.6 8.4h-2.8c-1.6 2.8-2 3.6-3.6 7.6 23.6 1.6 48-2.4 71.2-12.8 72.8-33.6 104-119.6 70.8-191.6zM110.69 279.997c-20.4-6-42-17.6-62.8-37.2-9.6-10-22.8-30.4-28.4-46-2 .4-4 .4-7.2.8 1.2 3.2 2.4 6 3.6 9.2 18 40.8 52.8 69.2 92.8 80.8h.4c.8-4 1.2-4.4 1.6-7.6z" fill="#fff" stroke="#fff" stroke-width="4"/><path d="M36.691 50.006l4-5.6 11.2 7.6-8 11.2-11.2-7.6c4-5.6.4 0 4-5.6z" fill="#8CDB60"/><path d="M21.891 71.594l3.2-6 12 6.4-6.4 12-12-6.4 3.2-6z" fill="#FCD40B"/><path d="M10.29 96.4l2.4-6.4 12.8 4.8-4.8 12.8-12.8-4.8c2.4-6.4-.4 0 2.4-6.4z" fill="#FAA81E"/><path d="M12.69 127.606c.4-3.6 1.2-7.2 2.4-11.6-4.4-.8-2.4-.4-6.8-1.6-7.6 30-4.8 60.8 6 88.4 0 0 0 .4.4.4l6.4-3.2c-8.8-26.4-11.6-40.8-8.4-72.4z" fill="#fff" stroke="#fff" stroke-width="4"/></svg>