<svg width="356" height="280" fill="none" xmlns="http://www.w3.org/2000/svg"><path d="M352 242.131c-1.01-7.076-3.534-20.22-10.603-28.813-5.554-6.066-18.176-12.131-51.5-23.758-6.563-2.527-6.563-2.527-6.563-8.088v-.505c17.166-2.022 31.304-14.154 32.314-14.66 1.514-1.516 2.524-3.538 1.514-5.055-.505-2.022-2.02-3.033-4.04-3.538 0 0-10.097-4.044-10.097-40.44-.505-28.813-19.186-50.044-44.431-50.044-11.108 0-21.206 4.55-29.284 12.638v-4.044c0-21.736-10.098-27.802-19.69-28.813-5.05-7.077-13.633-9.605-27.77-9.605-9.593 0-16.662 3.033-22.72 5.055-5.554 2.528-10.603 4.55-17.672 4.55-3.03 0-9.088 1.516-11.612 10.615-1.01 4.044-1.515 9.604-2.02 17.187-5.05 0-9.088-1.517-13.128-3.539-5.048-2.022-10.602-4.044-18.176-4.044-14.642 0-21.71 3.539-25.244 7.583C58.15 76.329 58.15 88.967 58.15 98.57c0 4.044.505 11.12 1.01 16.176 0 2.022.505 4.044.505 5.56-4.04 4.044-6.059 11.627-4.544 19.714 1.515 6.572 5.554 12.638 10.098 15.166.505.505 1.515.505 2.02 1.01 1.514 5.055 4.039 12.638 7.068 17.187v8.088c0 6.066 0 6.066-6.564 8.088-34.838 12.132-47.46 17.692-53.014 23.758-7.573 8.088-10.098 21.231-10.603 28.813-.505 3.539.505 7.077 3.03 9.605 2.524 2.527 5.553 4.044 9.088 4.044h43.42c-.504 2.527-1.009 5.055-1.009 7.077 0 3.538 1.01 6.571 3.534 9.099 2.525 2.527 5.554 4.043 9.089 4.043h213.066c3.534 0 6.564-1.516 9.088-4.043 2.524-2.528 3.534-6.066 3.534-9.1 0-2.021-.505-4.043-.505-6.57h43.421c3.535 0 7.069-1.517 9.088-4.045 2.02-3.032 3.03-6.571 3.03-10.11zm-216.6-50.549c-2.02-.505-4.04-1.517-6.06-2.022-6.563-2.527-6.563-2.527-6.563-8.088v-8.088c3.03-4.55 5.554-12.132 7.069-17.187 3.029-1.01 5.553-3.538 7.573-6.571 1.01 6.571 3.03 15.165 6.563 20.22v10.615c.506 8.088 0 8.088-8.583 11.121zM16.243 246.175c-1.01 0-1.515-.505-2.02-1.01-.505-.506-.505-1.012-.505-2.022 1.01-10.11 4.04-18.704 8.079-23.253 5.049-5.56 21.71-12.132 47.46-21.231 11.108-4.044 13.127-8.088 13.127-17.692v-9.605c0-1.516-.505-2.527-1.515-3.538-1.514-1.517-5.048-10.615-7.068-17.693 0-2.022-2.524-3.538-4.544-3.538-1.515-.506-4.544-4.044-5.554-9.099-1.01-5.055.505-9.099 1.515-9.604 3.534-1.011 3.534-3.033 3.029-13.649-.505-5.054-.505-12.132-.505-15.67 0-13.143 1.515-14.154 6.059-14.154 1.515 0 3.534-1.01 4.04-2.527.504-1.011 4.038-5.055 18.176-5.055 5.553 0 10.097 1.516 14.136 3.538 4.544 2.022 10.098 4.044 16.662 4.044 0 0 .505 0 .505 1.011v.506c0 5.56.505 11.626 1.01 15.67v2.527c-5.049 4.55-7.574 14.154-5.554 23.759 1.515 5.56 4.039 11.12 7.573 14.659-1.514 2.528-3.03 4.044-4.039 4.55-2.524-.506-4.544 1.01-5.554 3.538-2.02 7.077-5.553 16.176-7.068 17.692-1.01 1.011-1.515 2.022-1.515 3.539v9.604c0 8.088 1.515 12.132 8.078 15.67-28.274 10.616-41.906 17.693-48.974 24.77-6.06 6.571-9.594 15.67-11.613 24.263H16.244zm270.12 19.21c-.506.505-1.01 1.01-2.02 1.01H71.278c-1.01 0-1.515-.505-2.02-1.01-.505-.506-.505-1.012-.505-2.023 1.01-15.67 5.049-28.307 11.108-34.879 6.563-7.077 23.225-14.66 57.053-26.791.505 0 1.01-.505 1.01-.505 14.642-5.056 15.652-9.605 15.652-21.231v-12.132c0-1.517-.505-2.528-1.515-3.539-2.02-2.022-5.049-13.648-6.059-22.242 0-1.516-.505-2.527-2.02-3.538-1.01-.505-1.514-1.01-2.524-1.01h-1.01c-1.514-.506-6.563-5.056-8.583-12.638-2.02-7.583 1.01-13.143 2.02-13.648 4.039-1.012 4.039-3.54 3.534-11.122-.505-6.57-1.01-17.186-1.01-25.274 0-6.572.505-11.627 1.515-15.165.505-2.022 1.514-3.539 2.02-3.539 8.583 0 15.146-2.527 21.205-5.054 6.059-2.528 11.108-4.55 18.681-4.55 15.652 0 19.186 3.539 21.206 7.077 1.01 1.517 2.524 2.527 4.04 2.527 6.563 0 12.622 2.528 12.622 18.704 0 5.055-.506 13.143-1.01 20.22-1.01 13.648-1.01 15.164 3.03 16.176 1.009.505 4.038 6.065 2.524 14.153-1.515 7.583-6.564 12.132-8.079 12.638-1.515-.506-3.029 0-4.039.505-1.01 1.011-2.02 2.022-2.02 3.538-1.01 9.1-4.039 20.22-6.058 22.242-1.01 1.011-1.515 2.022-1.515 3.539v12.132c0 11.12 1.515 16.175 15.652 21.23 34.838 12.638 52.004 20.22 58.568 27.297 6.059 6.572 10.098 19.209 11.107 34.88 1.01 1.01.506 1.516.506 2.021zm-54.024-83.913c0 6.066 0 6.066-6.564 8.088-2.02.505-4.04 1.517-6.059 2.022-8.583-3.033-8.583-3.033-8.583-11.626v-6.572c6.058 3.539 13.127 6.572 21.206 8.088zm109.057 63.693c-.505.505-1.01 1.01-2.02 1.01h-44.935c-2.02-8.593-5.554-17.692-11.613-24.263-7.068-7.583-20.7-14.66-48.975-24.77 7.069-3.538 8.078-7.582 8.078-15.67v-5.055c0-2.527-2.02-5.055-5.048-5.055-9.088 0-17.672-4.044-23.226-7.582 2.02-5.56 3.534-12.132 4.04-16.681 6.058-2.528 12.622-10.11 14.642-19.715 2.02-9.604-.506-19.714-5.554-23.758 0-1.517 0-3.539.504-6.066 6.06-12.637 17.672-20.725 30.294-20.725 19.186 0 34.333 17.186 34.333 40.44 0 27.296 5.554 39.428 10.603 45.494-5.554 3.538-15.147 8.593-25.245 8.593-2.524 0-5.049 2.022-5.049 5.055v5.055c0 9.605 2.02 13.649 13.128 17.693 25.75 9.098 42.916 16.175 47.46 21.23 4.04 4.55 7.068 12.638 8.078 23.253 1.01.505.505 1.517.505 1.517z" fill="#fff" stroke="#fff" stroke-width="1" stroke-miterlimit="10"/><path d="M186.393 17.187h-17.166V0h17.166v17.187z" fill="#FCD40B"/><path d="M221.233 17.187h-17.167V0h17.167v17.187z" fill="#FAA81E"/><path d="M151.557 17.187h-17.166V0h17.166v17.187z" fill="#8CDB60"/></svg>