<svg width="32" height="31" viewBox="0 0 32 31" fill="none" xmlns="http://www.w3.org/2000/svg">
<path d="M28.2781 15.8928V10.3979H32L25.4973 6.12886V0.63402H20.4492V2.83196L16.1712 0C16.1712 0 14.8439 0.862713 14.2408 1.24738C14.1764 1.28843 14.075 1.35258 14.075 1.35258L14.466 2.02732C14.466 2.02732 14.5921 1.94406 14.6563 1.90206C15.1129 1.60373 15.6102 1.29132 16.1284 0.929896C17.7541 1.9866 19.3797 3.0433 21.1765 4.2268C21.1765 3.29691 21.1765 3.08557 21.1765 1.35258C23.4866 1.35258 23.4866 1.35258 24.6417 1.35258C24.6417 2.74742 24.6417 3.97319 24.6417 6.50927C27.0374 8.07319 29.3048 9.55257 29.3048 9.55257C28.6631 9.55257 28.5775 9.55257 27.4225 9.55257C27.4225 11.9619 27.4225 14.4134 27.4225 17.3299C27.4225 20.2464 27.3795 23.4165 27.3795 26.4175C27.7218 26.7979 28.0642 26.7557 28.2353 26.7134C28.2353 26.5866 28.2353 26.4598 28.2353 26.333C28.3208 21.7258 28.3208 16.7381 28.2781 15.8928Z" fill="white"/>
<path d="M1.30194 9.46146L1.30194 10.2223L4.18604 10.2223L4.18604 9.46146L1.30194 9.46146Z" fill="white"/>
<path d="M3.42232 26.2061L3.42232 27.0514L11.1228 27.0514L11.1228 26.2061L3.42232 26.2061Z" fill="white"/>
<path d="M20.9624 26.2061L20.9624 27.0514L28.2351 27.0514L28.2351 26.2061L20.9624 26.2061Z" fill="white"/>
<path d="M3.42236 10.1442L3.42236 26.7133L4.19241 26.7133L4.19241 10.1442L3.42236 10.1442Z" fill="white"/>
<path d="M5.64702 7.4389L1.41176 10.2286H0L5.24242 6.78839L5.64702 7.4389Z" fill="white"/>
<path d="M10.9091 4.48047L9.71121 5.28356L8.94116 4.10006L10.139 3.33923C10.9091 4.48047 10.0962 3.29697 10.9091 4.48047Z" fill="#FCD40B"/>
<path d="M13.3903 2.87412L12.1924 3.63494L11.4224 2.45144L12.6202 1.69061C13.3903 2.87412 12.5774 1.69061 13.3903 2.87412Z" fill="#FAA81E"/>
<path d="M8.42767 6.08655L7.22982 6.84737L6.41699 5.70614L7.61485 4.94531C8.42767 6.08655 7.65763 4.90304 8.42767 6.08655Z" fill="#86C24B"/>
<path d="M13.8545 28.5122H12.2139V26.9161H13.8545C13.8545 28.5122 13.8545 26.9161 13.8545 28.5122Z" fill="#86C24B"/>
<path d="M17.1358 14.7608C17.0802 14.7338 16.9967 14.7338 16.9689 14.7879L13.0759 19.9547C13.0481 20.0088 13.0481 20.0629 13.0481 20.09C13.0759 20.1441 13.1315 20.1711 13.1593 20.1711H15.3561L14.4107 23.6067C14.3828 23.6608 14.4107 23.7419 14.4663 23.769C14.4941 23.769 14.4941 23.796 14.5219 23.796C14.5497 23.796 14.6053 23.769 14.6331 23.7419L18.5261 18.5751C18.5539 18.521 18.5539 18.4669 18.5539 18.4398C18.5261 18.3857 18.4705 18.3587 18.4427 18.3587H16.2459L17.1914 14.9231C17.2192 14.869 17.1914 14.7879 17.1358 14.7608ZM15.9957 18.8185C16.663 18.8185 16.9133 18.8185 17.6919 18.8185L15.4117 21.9295C15.5786 21.3884 15.6898 20.9286 15.9401 20.09C15.9679 19.9547 15.8566 19.7112 15.5786 19.7112C15.1615 19.7112 13.8545 19.7112 13.8545 19.7112L16.1903 16.6274C16.1903 16.6274 15.7176 18.3316 15.6898 18.4939C15.662 18.6562 15.7454 18.8456 15.9957 18.8185Z" fill="white" stroke="white" stroke-width="0.75"/>
<path d="M16.6353 28.5122H14.9946V26.9161H16.6353C16.6353 28.5122 16.6353 26.9161 16.6353 28.5122Z" fill="#FCD40B"/>
<path d="M19.4158 28.5122H17.7751V26.9161H19.4158C19.4158 28.5122 19.4158 26.9161 19.4158 28.5122Z" fill="#FAA81E"/>
<path d="M20.7785 12.146H18.3036V10.6581C18.3036 10.5229 18.1646 10.4147 17.97 10.4147H13.6876C13.493 10.4147 13.3539 10.5229 13.3539 10.6581V12.146H10.8791C10.6844 12.146 10.5454 12.2542 10.5454 12.3894V16.5824V26.4562V29.7565C10.5454 29.8918 10.6844 30 10.8791 30H20.7785C20.9731 30 21.1122 29.8918 21.1122 29.7565V26.4292V16.5824V12.3894C21.1122 12.2542 20.9731 12.146 20.7785 12.146ZM14.0491 10.9016H17.6363C17.8309 10.9016 17.8309 10.9016 17.8309 11.091V12.146H13.8545V11.091C13.8545 10.9016 13.8545 10.9016 14.0491 10.9016ZM20.417 29.486H11.3518C11.0459 29.486 11.0459 29.486 11.0459 29.1614V12.7952C11.0459 12.6329 11.0459 12.6329 11.185 12.6329H20.3336C20.5838 12.6329 20.5838 12.6329 20.6117 12.8764V29.2966C20.6117 29.486 20.6117 29.486 20.417 29.486Z" fill="white" stroke="white" stroke-width="0.75"/>
</svg>
