<svg fill="none" height="58" viewBox="0 0 279 58" width="279" xmlns="http://www.w3.org/2000/svg"><g fill="#06a7e0"><path d="m105.26 45.6294c-4.665 0-9.3303-1.2227-12.2886-4.4462-.1138-.1112-.2276-.3335-.1138-.5558l3.2427-3.557c.1707-.2223.512-.2779.6258-.1111 2.56 2.5566 5.5749 3.2791 8.9319 3.2791 3.186 0 5.746-1.056 5.746-3.3347 0-2.1675-2.219-3.0568-6.315-4.2239-7.1113-2.0564-10.866-4.4463-10.866-9.9485 0-5.391 4.8356-8.2255 11.15-8.2255 4.153 0 8.534 1.0004 10.923 4.0016.171.2779.285.4446.114.6669l-3.129 3.1124c-.114.1112-.455.2779-.683.0556-2.389-2.2231-5.29-2.5566-7.282-2.5566-3.47 0-4.778 1.3339-4.778 2.8901 0 2.1119 1.593 3.0567 7.054 4.5573 6.144 1.723 9.899 3.7238 9.899 9.5594 0 6.0025-5.689 8.8369-12.231 8.8369z"/><path d="m136.719 45.4627c-7.794 0-12.516-3.7793-12.516-11.0044v-18.8409c0-.2223.228-.5558.512-.5558h5.405c.284 0 .512.3335.512.5558v18.0072c0 4.0016 1.65 6.2247 6.201 6.2247 4.835 0 6.258-2.501 6.258-6.3914v-18.0073c0-.1667.227-.4446.512-.4446h5.461c.228 0 .455.2779.455.4446v18.8409c0 7.2252-5.063 11.1712-12.8 11.1712z"/><path d="m169.715 14.6726c7.794 0 12.515 3.7793 12.515 11.0044v18.8409c0 .2223-.227.5558-.512.5558h-5.404c-.284 0-.512-.3335-.512-.5558v-18.0072c0-4.0016-1.65-6.2248-6.201-6.2248-4.836 0-6.258 2.5011-6.258 6.3915v17.9517c0 .1667-.227.4446-.512.4446h-5.461c-.285 0-.455-.2779-.455-.4446v-18.8409c0-7.2252 5.006-11.1156 12.8-11.1156z"/><path d="m225.694 45.4627c-7.794 0-12.516-3.7793-12.516-11.0044v-18.8409c0-.2223.228-.5558.512-.5558h5.405c.284 0 .455.3335.455.5558v18.0072c0 4.0016 1.65 6.2247 6.201 6.2247 4.836 0 6.258-2.501 6.258-6.3914v-18.0073c0-.1667.227-.4446.512-.4446h5.461c.285 0 .455.2779.455.4446v18.8409c0 7.2252-5.006 11.1712-12.743 11.1712z"/><path d="m258.634 14.6726c7.794 0 12.516 3.7793 12.516 11.0044v18.8409c0 .2223-.228.5558-.512.5558h-5.405c-.284 0-.455-.3335-.455-.5558v-18.0072c0-4.0016-1.649-6.2248-6.201-6.2248-4.835 0-6.257 2.5011-6.257 6.3915v17.9517c0 .1667-.228.4446-.512.4446h-5.462c-.284 0-.455-.2779-.455-.4446v-18.8409c0-7.2252 5.006-11.1156 12.743-11.1156z"/><path d="m206.637 14.7282h-.171c-1.536-.0556-2.105-.0556-2.674-.0556-7.737 0-12.8 3.8904-12.8 11.1156v18.8409c0 .1667.171.4446.455.4446h5.462c.284 0 .512-.2779.512-.4446v-17.9517c0-3.8904 1.422-6.3915 6.257-6.3915h2.788.171c.512 0 .967-.4446.967-.9448v-3.6681c0-.5558-.398-.9448-.967-.9448z"/><path d="m25.7845 32.2908c1.7067 14.8948 15.0188 26.3995 30.891 25.677 15.1896-.667 27.5915-12.7274 28.2742-27.5667.7964-16.6178-12.8002-30.4011-29.6395-30.4011-6.0872 0-11.7762 1.83407-16.498 4.89086-.2276.16673-.2844.5002-.0569.72251l4.0961 4.00161c.1706.16673.3982.16673.5689.05557 3.8116-2.27869 8.4196-3.44583 13.2552-3.16794 11.7762.66694 21.2199 10.11519 21.675 21.61979.512 12.8385-10.0126 23.3983-23.0403 23.3983-10.6953 0-19.7407-7.1695-22.3007-16.8957-.0569-.1667 0-.3334.1137-.4446l12.3451-12.1716c.1707-.1667.512-.1667.6827 0l10.297 10.0596c.1138.1112.2275.1112.3413.1112h16.498c.2845 0 .4551-.2223.4551-.4446v-5.5578c0-.2779-.2275-.4446-.4551-.4446h-13.7673c-.1138 0-.2275-.0556-.3413-.1112l-12.914-12.6162c-.1706-.1667-.512-.1667-.6826 0l-19.6838 18.8965c-.0569.1112-.1138.2223-.1138.3891z"/></g><path d="m37.049 16.5622 4.0392-3.946c.1706-.1667.1706-.5002 0-.6669l-5.6321-5.50225c-.1138-.11116-.2276-.11116-.3414-.11116h-8.0783c-.4551 0-.6258.5002-.3413.77809l9.6712 9.44822c.1707.1668.512.1668.6827 0z" fill="#faa81e"/><path d="m30.3356 22.9537 4.0392-3.9461c.1707-.1667.1707-.5002 0-.6669l-12.2313-11.89365c-.1138-.11116-.2275-.11116-.3413-.11116h-8.0215c-.4551 0-.6257.5002-.3413.77809l16.2135 15.83972c.1707.1667.5121.1667.6827 0z" fill="#fbd40a"/><path d="m.127094 7.28067 22.755806 22.23113c.1707.1668.5121.1668.6827 0l4.0392-3.946c.1707-.1667.1707-.5002 0-.6669l-18.77359-18.34074c-.11378-.11115-.22756-.11115-.34134-.11115h-8.021438c-.3982275.05557-.625786.55578-.341338.83366z" fill="#8cc16f"/><path d="m62.6488 42.4059h5.177c.2275 0 .4551-.2223.4551-.4446v-5.3911c0-.2779-.1707-.4446-.4551-.4446h-5.177c-.2275 0-.4551.2223-.4551.4446v5.3911c0 .2223.2276.4446.4551.4446z" fill="#faa81e"/><path d="m52.977 42.4059h5.177c.2276 0 .4551-.2223.4551-.4446v-5.3911c0-.2779-.1707-.4446-.4551-.4446h-5.177c-.2275 0-.4551.2223-.4551.4446v5.3911c0 .2223.2276.4446.4551.4446z" fill="#fbd40a"/><path d="m48.4836 44.8514h-5.1769c-.2276 0-.4551-.2224-.4551-.4447v-11.6713c0-.2779.1706-.4446.4551-.4446h5.1769c.2276 0 .4552.2223.4552.4446v11.6713c0 .2223-.2276.4447-.4552.4447z" fill="#06a7e0"/><path d="m275.53 12.9496c.398 0 .569-.1668.569-.5002 0-.3335-.228-.4447-.569-.4447h-.455v.9449zm-1.138-1.5006h1.195c.796 0 1.308.3334 1.308 1.0004 0 .5002-.284.778-.683.8892l.911 1.3894h-.74l-.796-1.2782h-.342v1.2782h-.739v-3.279zm3.925 1.6673c0-1.6118-1.137-2.7789-2.787-2.7789-1.593 0-2.788 1.1671-2.788 2.7789 0 1.6673 1.195 2.7233 2.788 2.7233 1.593.0556 2.787-1.1116 2.787-2.7233zm-6.144 0c0-1.8341 1.479-3.33468 3.414-3.33468 1.934 0 3.413 1.44498 3.413 3.27908 0 1.8897-1.479 3.2791-3.413 3.2791-1.935.0556-3.414-1.3339-3.414-3.2235z" fill="#06a7e0"/></svg>